<svg width="0" height="0" class="hidden">
  <symbol xmlns="http://www.w3.org/2000/svg" viewBox="0 0 512 512" id="search-outline">
    <path d="M221.09 64a157.09 157.09 0 10157.09 157.09A157.1 157.1 0 00221.09 64z" fill="none" stroke="currentColor" stroke-miterlimit="10" stroke-width="32"></path>
    <path fill="none" stroke="currentColor" stroke-linecap="round" stroke-miterlimit="10" stroke-width="32" d="M338.29 338.29L448 448"></path>
  </symbol>
  <symbol xmlns="http://www.w3.org/2000/svg" viewBox="0 0 512 512" id="airplane-outline">
    <path d="M407.72 224c-3.4 0-14.79.1-18 .3l-64.9 1.7a1.83 1.83 0 01-1.69-.9L193.55 67.56a9 9 0 00-6.66-3.56H160l73 161a2.35 2.35 0 01-2.26 3.35l-121.69 1.8a8.06 8.06 0 01-6.6-3.1l-37-45c-3-3.9-8.62-6-13.51-6H33.08c-1.29 0-1.1 1.21-.75 2.43l19.84 71.42a16.3 16.3 0 010 11.9L32.31 333c-.59 1.95-.52 3 1.77 3H52c8.14 0 9.25-1.06 13.41-6.3l37.7-45.7a8.19 8.19 0 016.6-3.1l120.68 2.7a2.7 2.7 0 012.43 3.74L160 448h26.64a9 9 0 006.65-3.55L323.14 287c.39-.6 2-.9 2.69-.9l63.9 1.7c3.3.2 14.59.3 18 .3C452 288.1 480 275.93 480 256s-27.88-32-72.28-32z" fill="none" stroke="currentColor" stroke-linecap="round" stroke-linejoin="round" stroke-width="32"></path>
  </symbol>
  <symbol xmlns="http://www.w3.org/2000/svg" viewBox="0 0 512 512" id="map-outline">
    <path d="M313.27 124.64L198.73 51.36a32 32 0 00-29.28.35L56.51 127.49A16 16 0 0048 141.63v295.8a16 16 0 0023.49 14.14l97.82-63.79a32 32 0 0129.5-.24l111.86 73a32 32 0 0029.27-.11l115.43-75.94a16 16 0 008.63-14.2V74.57a16 16 0 00-23.49-14.14l-98 63.86a32 32 0 01-29.24.35zM328 128v336M184 48v336" fill="none" stroke="currentColor" stroke-linecap="round" stroke-linejoin="round" stroke-width="32"></path>
  </symbol>
  <symbol xmlns="http://www.w3.org/2000/svg" viewBox="0 0 512 512" id="home-outline">
    <path d="M80 212v236a16 16 0 0016 16h96V328a24 24 0 0124-24h80a24 24 0 0124 24v136h96a16 16 0 0016-16V212" fill="none" stroke="currentColor" stroke-linecap="round" stroke-linejoin="round" stroke-width="32"></path>
    <path d="M480 256L266.89 52c-5-5.28-16.69-5.34-21.78 0L32 256M400 179V64h-48v69" fill="none" stroke="currentColor" stroke-linecap="round" stroke-linejoin="round" stroke-width="32"></path>
  </symbol>
  <symbol xmlns="http://www.w3.org/2000/svg" viewBox="0 0 512 512" id="key-outline">
    <path d="M218.1 167.17c0 13 0 25.6 4.1 37.4-43.1 50.6-156.9 184.3-167.5 194.5a20.17 20.17 0 00-6.7 15c0 8.5 5.2 16.7 9.6 21.3 6.6 6.9 34.8 33 40 28 15.4-15 18.5-19 24.8-25.2 9.5-9.3-1-28.3 2.3-36s6.8-9.2 12.5-10.4 15.8 2.9 23.7 3c8.3.1 12.8-3.4 19-9.2 5-4.6 8.6-8.9 8.7-15.6.2-9-12.8-20.9-3.1-30.4s23.7 6.2 34 5 22.8-15.5 24.1-21.6-11.7-21.8-9.7-30.7c.7-3 6.8-10 11.4-11s25 6.9 29.6 5.9c5.6-1.2 12.1-7.1 17.4-10.4 15.5 6.7 29.6 9.4 47.7 9.4 68.5 0 124-53.4 124-119.2S408.5 48 340 48s-121.9 53.37-121.9 119.17zM400 144a32 32 0 11-32-32 32 32 0 0132 32z" fill="none" stroke="currentColor" stroke-linejoin="round" stroke-width="32"></path>
  </symbol>
  <symbol xmlns="http://www.w3.org/2000/svg" viewBox="0 0 512 512" id="star-outline">
    <path d="M480 208H308L256 48l-52 160H32l140 96-54 160 138-100 138 100-54-160z" fill="none" stroke="currentColor" stroke-linejoin="round" stroke-width="32"></path>
  </symbol>
  <symbol xmlns="http://www.w3.org/2000/svg" viewBox="0 0 512 512" id="chatbubbles-outline">
    <path d="M431 320.6c-1-3.6 1.2-8.6 3.3-12.2a33.68 33.68 0 012.1-3.1A162 162 0 00464 215c.3-92.2-77.5-167-173.7-167-83.9 0-153.9 57.1-170.3 132.9a160.7 160.7 0 00-3.7 34.2c0 92.3 74.8 169.1 171 169.1 15.3 0 35.9-4.6 47.2-7.7s22.5-7.2 25.4-8.3a26.44 26.44 0 019.3-1.7 26 26 0 0110.1 2l56.7 20.1a13.52 13.52 0 003.9 1 8 8 0 008-8 12.85 12.85 0 00-.5-2.7z" fill="none" stroke="currentColor" stroke-linecap="round" stroke-miterlimit="10" stroke-width="32"></path>
    <path d="M66.46 232a146.23 146.23 0 006.39 152.67c2.31 3.49 3.61 6.19 3.21 8s-11.93 61.87-11.93 61.87a8 8 0 002.71 7.68A8.17 8.17 0 0072 464a7.26 7.26 0 002.91-.6l56.21-22a15.7 15.7 0 0112 .2c18.94 7.38 39.88 12 60.83 12A159.21 159.21 0 00284 432.11" fill="none" stroke="currentColor" stroke-linecap="round" stroke-miterlimit="10" stroke-width="32"></path>
  </symbol>
  <symbol xmlns="http://www.w3.org/2000/svg" viewBox="0 0 512 512" id="bookmark-outline">
    <path d="M352 48H160a48 48 0 00-48 48v368l144-128 144 128V96a48 48 0 00-48-48z" fill="none" stroke="currentColor" stroke-linecap="round" stroke-linejoin="round" stroke-width="32"></path>
  </symbol>
  <symbol xmlns="http://www.w3.org/2000/svg" viewBox="0 0 512 512" id="location-outline">
    <path d="M256 48c-79.5 0-144 61.39-144 137 0 87 96 224.87 131.25 272.49a15.77 15.77 0 0025.5 0C304 409.89 400 272.07 400 185c0-75.61-64.5-137-144-137z" fill="none" stroke="currentColor" stroke-linecap="round" stroke-linejoin="round" stroke-width="32"></path>
    <circle cx="256" cy="192" r="48" fill="none" stroke="currentColor" stroke-linecap="round" stroke-linejoin="round" stroke-width="32"></circle>
  </symbol>
</svg>